<svg xmlns="http://www.w3.org/2000/svg" xmlns:xlink="http://www.w3.org/1999/xlink" viewBox="0 0 145.09 144.58"><defs><style>.a{fill:#8cc5d0;}.b{fill:url(#a);}.c{fill:url(#b);}.d{fill:url(#c);}.e{fill:url(#d);}.f{fill:url(#e);}.g{fill:url(#f);}</style><linearGradient id="a" x1="0.13" y1="43.5" x2="83.72" y2="43.5" gradientTransform="matrix(1, 0, 0, -1, 0, 144.29)" gradientUnits="userSpaceOnUse"><stop offset="0" stop-color="#8cc5d0"/><stop offset="1" stop-color="#8cc5d0"/></linearGradient><linearGradient id="b" x1="63.37" y1="60.14" x2="84.51" y2="60.14" xlink:href="#a"/><linearGradient id="c" x1="19.36" y1="98.79" x2="31.01" y2="98.79" xlink:href="#a"/><linearGradient id="d" x1="26.49" y1="87.75" x2="88.79" y2="87.75" xlink:href="#a"/><linearGradient id="e" x1="21.72" y1="124.04" x2="85.91" y2="124.04" xlink:href="#a"/><linearGradient id="f" x1="36.87" y1="54.02" x2="70.94" y2="54.02" xlink:href="#a"/></defs><title>Asset 1</title><path class="a" d="M108.34,91.87h0a15.44,15.44,0,0,0,0,30.88h0a15.44,15.44,0,0,0,0-30.88ZM96.09,107.31a12.24,12.24,0,1,1,12.24,12.24A12,12,0,0,1,96.09,107.31Z"/><path class="a" d="M108.07,123a15.71,15.71,0,0,1,0-31.41h0a15.73,15.73,0,0,1,15.71,15.71A15.4,15.4,0,0,1,108.07,123Zm0-30.88a15.17,15.17,0,1,0,0,30.35h0a15.17,15.17,0,0,0,15.17-15.17c.27-8.25-6.65-15.17-15.17-15.17Zm.27,27.68a12.51,12.51,0,1,1,12.51-12.51A12.67,12.67,0,0,1,108.34,119.82Zm0-24.49a12,12,0,1,0,12,12A12.1,12.1,0,0,0,108.34,95.33Z"/><path class="a" d="M140.55,99.59h-5.86A20.86,20.86,0,0,0,132.3,94l4-4a4.91,4.91,0,0,0,1.33-3.19,4.41,4.41,0,0,0-1.33-3.19L132,79.1a5.06,5.06,0,0,0-3.46-1.33,4.91,4.91,0,0,0-3.19,1.33l-4,4a25.27,25.27,0,0,0-5.59-2.4V75.1a4.49,4.49,0,0,0-4.53-4.53h-6.12a4.49,4.49,0,0,0-4.53,4.53V81A25.27,25.27,0,0,0,95,83.35l-4-4a4.66,4.66,0,0,0-6.65,0l-4.26,4.26a4.35,4.35,0,0,0,0,6.39l4,4a25.27,25.27,0,0,0-2.4,5.59H76.13a4.41,4.41,0,0,0-3.19,1.33,4.91,4.91,0,0,0-1.33,3.19v6.12a4.49,4.49,0,0,0,4.53,4.53H82a20.86,20.86,0,0,0,2.4,5.59l-4,4a4.67,4.67,0,0,0-1.6,3.73,4.41,4.41,0,0,0,1.33,3.19l4.26,4.26a5.06,5.06,0,0,0,3.46,1.33A4.91,4.91,0,0,0,91,135.53l4-4a25.27,25.27,0,0,0,5.59,2.4v5.86a4.49,4.49,0,0,0,4.53,4.53h6.12a4.49,4.49,0,0,0,4.53-4.53v-5.86a25.27,25.27,0,0,0,5.59-2.4l4,4a4.66,4.66,0,0,0,6.65,0l4.26-4.26a4.35,4.35,0,0,0,0-6.39l-4-4a25.27,25.27,0,0,0,2.4-5.59h5.86a4.41,4.41,0,0,0,3.19-1.33,4.91,4.91,0,0,0,1.33-3.19v-6.39A4.55,4.55,0,0,0,140.55,99.59Zm1.33,10.91a1.38,1.38,0,0,1-.53,1.06,2,2,0,0,1-1.06.53h-6.92a1.8,1.8,0,0,0-1.6,1.06,22.59,22.59,0,0,1-2.93,6.92,1.64,1.64,0,0,0,.27,1.86l4.79,4.79a1.62,1.62,0,0,1,0,2.13l-4,4.26a1.62,1.62,0,0,1-2.13,0h0L123,128.34a2,2,0,0,0-1.06-.53,1,1,0,0,0-.8.27,22.59,22.59,0,0,1-6.92,2.93,1.46,1.46,0,0,0-1.06,1.6v6.92a1.72,1.72,0,0,1-1.6,1.6h-6.12a1.72,1.72,0,0,1-1.6-1.6V132.6a1.8,1.8,0,0,0-1.06-1.6,22.59,22.59,0,0,1-6.92-2.93,1.64,1.64,0,0,0-1.86.27l-4.79,4.79a1.6,1.6,0,0,1-2.4,0l-4.26-4.26a2,2,0,0,1-.53-1.06,1.38,1.38,0,0,1,.53-1.06L87.31,122a1.64,1.64,0,0,0,.27-1.86,22.59,22.59,0,0,1-2.93-6.92,1.46,1.46,0,0,0-1.6-1.06H76.4a1.72,1.72,0,0,1-1.6-1.6v-6.12a1.38,1.38,0,0,1,.53-1.06,2,2,0,0,1,1.06-.53h6.92a1.8,1.8,0,0,0,1.6-1.06,22.59,22.59,0,0,1,2.93-6.92,1.64,1.64,0,0,0-.27-1.86l-4.79-4.79a1.62,1.62,0,0,1,0-2.13L87,81.76a1.62,1.62,0,0,1,2.13,0h0L94,86.55a2,2,0,0,0,1.06.53,1,1,0,0,0,.8-.27,22.59,22.59,0,0,1,6.92-2.93,1.46,1.46,0,0,0,1.06-1.6V75.1a1.72,1.72,0,0,1,1.6-1.6h5.86a1.72,1.72,0,0,1,1.6,1.6V82a1.8,1.8,0,0,0,1.06,1.6,22.59,22.59,0,0,1,6.92,2.93,1.64,1.64,0,0,0,1.86-.27l4.79-4.79a1.6,1.6,0,0,1,2.4,0l4.26,4.26a1.33,1.33,0,0,1,0,2.13l-4.79,4.79a1.64,1.64,0,0,0-.27,1.86,22.59,22.59,0,0,1,2.93,6.92,1.46,1.46,0,0,0,1.6,1.06h6.92a1.72,1.72,0,0,1,1.6,1.6l-.27,6.39Z"/><path class="a" d="M111.27,144.58h-6.12a4.77,4.77,0,0,1-4.79-4.79V134.2A31.72,31.72,0,0,1,95,132.07l-4,4a5.16,5.16,0,0,1-6.92,0l-4.26-4.26a5.06,5.06,0,0,1-1.33-3.46,5.61,5.61,0,0,1,1.33-3.46l4-4a31.73,31.73,0,0,1-2.13-5.32H76.13a4.77,4.77,0,0,1-4.79-4.79v-6.39a5.61,5.61,0,0,1,1.33-3.46,5.06,5.06,0,0,1,3.46-1.33h5.32a31.73,31.73,0,0,1,2.13-5.32l-4-4a5.06,5.06,0,0,1-1.33-3.46,5.61,5.61,0,0,1,1.33-3.46l4.26-4.26a5,5,0,0,1,6.92,0l4,4A31.73,31.73,0,0,1,100.09,81V75.1a4.77,4.77,0,0,1,4.79-4.79H111a4.77,4.77,0,0,1,4.79,4.79v5.59a31.72,31.72,0,0,1,5.32,2.13l4-4a5.16,5.16,0,0,1,6.92,0l4.26,4.26a5.06,5.06,0,0,1,1.33,3.46A5.61,5.61,0,0,1,136.29,90l-4,4a31.73,31.73,0,0,1,2.13,5.32H140a4.77,4.77,0,0,1,4.79,4.79v6.12a5.61,5.61,0,0,1-1.33,3.46A5.06,5.06,0,0,1,140,115h-5.59a31.73,31.73,0,0,1-2.13,5.32l4,4a5.06,5.06,0,0,1,1.33,3.46,5.61,5.61,0,0,1-1.33,3.46L132,135.53a5,5,0,0,1-6.92,0l-3.73-3.73a31.73,31.73,0,0,1-5.32,2.13v5.59A4.68,4.68,0,0,1,111.27,144.58Zm-16-13.31h0a22.59,22.59,0,0,0,5.86,2.4h.27v5.86a4.2,4.2,0,0,0,4.26,4.26h6.12a4.2,4.2,0,0,0,4.26-4.26v-5.86h.27a25.27,25.27,0,0,0,5.59-2.4h0l4.26,4.26a4.51,4.51,0,0,0,6.12,0l4.26-4.26a4.41,4.41,0,0,0,1.33-3.19,4.91,4.91,0,0,0-1.33-3.19L132,120.62v-.27a25.27,25.27,0,0,0,2.4-5.59v-.27h6.12a5.53,5.53,0,0,0,3.19-1.33,4.41,4.41,0,0,0,1.33-3.19v-5.59a4.2,4.2,0,0,0-4.26-4.26H135v-.27a25.27,25.27,0,0,0-2.4-5.59V94l4.26-4.26a4.41,4.41,0,0,0,1.33-3.19,5.53,5.53,0,0,0-1.33-3.19l-4.53-4A4.41,4.41,0,0,0,129.1,78a4.27,4.27,0,0,0-2.93,1.33l-4.26,4.26h-.27a25.27,25.27,0,0,0-5.59-2.4h-.27V75.1a4.2,4.2,0,0,0-4.26-4.26h-6.12a4.2,4.2,0,0,0-4.26,4.26V81h-.27a25.27,25.27,0,0,0-5.59,2.4H95L90.77,79.1a4.51,4.51,0,0,0-6.12,0l-4.26,4.26a4.41,4.41,0,0,0-1.33,3.19,5.53,5.53,0,0,0,1.33,3.19L84.65,94v.27a25.27,25.27,0,0,0-2.4,5.59v.27H76.4a5.53,5.53,0,0,0-3.19,1.33,4.41,4.41,0,0,0-1.33,3.19v6.12A4.2,4.2,0,0,0,76.13,115H82v.27a25.27,25.27,0,0,0,2.4,5.59v.27l-4.26,4.26a4.41,4.41,0,0,0-1.33,3.19,5.53,5.53,0,0,0,1.33,3.19l4.26,4.26a4.41,4.41,0,0,0,3.19,1.33,4.27,4.27,0,0,0,2.93-1.33Zm16,10.12h-6.12a1.82,1.82,0,0,1-1.86-1.86V132.6a1.77,1.77,0,0,0-1.06-1.33A27.26,27.26,0,0,1,95,128.34a1.72,1.72,0,0,0-1.33.53l-4.79,4.79a2,2,0,0,1-1.33.53,1.38,1.38,0,0,1-1.06-.53l-4.26-4.26a2,2,0,0,1-.53-1.33c0-.53.27-.8.53-1.33L87,122a1.25,1.25,0,0,0,.27-1.6,21.52,21.52,0,0,1-2.93-7.19c-.27-.53-.53-1.06-1.33-1.06H76.13a1.82,1.82,0,0,1-1.86-1.86v-5.86c0-.53.27-.8.53-1.33a2,2,0,0,1,1.33-.53h6.92a1.77,1.77,0,0,0,1.33-1.06,27.26,27.26,0,0,1,2.93-7.19,1.25,1.25,0,0,0-.27-1.6l-4.53-4.79a1.49,1.49,0,0,1,0-2.4l4.26-4.26c.53-.53,1.86-.8,2.4,0l.27.27h0L94,86c.27.27.53.27,1.06.27a1,1,0,0,0,.8-.27A21.52,21.52,0,0,1,103,83.09c.53-.27,1.06-.53,1.06-1.33V75.1a1.82,1.82,0,0,1,1.86-1.86h6.12a1.82,1.82,0,0,1,1.86,1.86V82A1.77,1.77,0,0,0,115,83.35a27.26,27.26,0,0,1,7.19,2.93,1.25,1.25,0,0,0,1.6-.27l4.79-4.79a2,2,0,0,1,1.33-.53,1.38,1.38,0,0,1,1.06.53l4.26,4.26a2,2,0,0,1,.53,1.33c0,.53-.27.8-.53,1.33l-4.79,4.79a1.25,1.25,0,0,0-.27,1.6,21.52,21.52,0,0,1,2.93,7.19c.27.53.53,1.06,1.33,1.06h6.92a1.82,1.82,0,0,1,1.86,1.86v6.12c0,.53-.27.8-.53,1.33a2,2,0,0,1-1.33.53h-6.92a1.77,1.77,0,0,0-1.33,1.06,27.26,27.26,0,0,1-2.93,7.19,1.25,1.25,0,0,0,.27,1.6l4.79,4.79a1.49,1.49,0,0,1,0,2.4l-4.79,4c-.53.53-1.86.8-2.4,0l-.27-.27h0l-4.53-4.53c-.27-.27-.53-.27-1.06-.27a1,1,0,0,0-.8.27,21.52,21.52,0,0,1-7.19,2.93c-.53.27-1.06.53-1.06,1.33v6.92C113.4,140.58,112.33,141.38,111.27,141.38Zm-16.5-13.58a2,2,0,0,1,1.06.27,22.59,22.59,0,0,0,6.92,2.93,1.77,1.77,0,0,1,1.33,1.86v6.92a1.26,1.26,0,0,0,1.33,1.33h6.12a1.26,1.26,0,0,0,1.33-1.33v-6.92a2,2,0,0,1,1.33-1.86,22.59,22.59,0,0,0,6.92-2.93c.27-.27.53-.27,1.06-.27a2,2,0,0,1,1.33.53l5.06,5.06a1.17,1.17,0,0,0,1.33-.27l4.26-4.26a1.29,1.29,0,0,0,0-1.86l-4.79-4.79a1.65,1.65,0,0,1-.27-2.13,22.59,22.59,0,0,0,2.93-6.92,1.77,1.77,0,0,1,1.86-1.33h6.92a2.68,2.68,0,0,0,.8-.27,1,1,0,0,0,.27-.8v-6.39a1.26,1.26,0,0,0-1.33-1.33h-6.92a2,2,0,0,1-1.86-1.33,22.59,22.59,0,0,0-2.93-6.92,1.61,1.61,0,0,1,.27-2.13l4.79-4.79a1,1,0,0,0,.27-.8,2.68,2.68,0,0,0-.27-.8L129.63,82a1,1,0,0,0-.8-.27c-.53,0-.8,0-1.06.27L123,86.82a1.65,1.65,0,0,1-2.13.27,22.59,22.59,0,0,0-6.92-2.93,1.77,1.77,0,0,1-1.33-1.86V75.1a1.26,1.26,0,0,0-1.33-1.33h-6.12a1.26,1.26,0,0,0-1.33,1.33V82a2,2,0,0,1-1.33,1.86,22.59,22.59,0,0,0-6.92,2.93c-.27.27-.53.27-1.06.27a2,2,0,0,1-1.33-.53l-5.06-5.06a1.17,1.17,0,0,0-1.33.27l-4.26,4a1.29,1.29,0,0,0,0,1.86l4.79,4.79a1.65,1.65,0,0,1,.27,2.13,22.59,22.59,0,0,0-2.93,6.92,1.77,1.77,0,0,1-1.86,1.33H76.13a2.68,2.68,0,0,0-.8.27,1,1,0,0,0-.27.8V110a1.26,1.26,0,0,0,1.33,1.33h6.92a2,2,0,0,1,1.86,1.33,22.59,22.59,0,0,0,2.93,6.92,1.61,1.61,0,0,1-.27,2.13l-4.79,4.79a1,1,0,0,0-.27.8,2.68,2.68,0,0,0,.27.8l4.26,4.26a1,1,0,0,0,.8.27,1.6,1.6,0,0,0,1.06-.27L94,127.54C94,128.07,94.23,127.81,94.76,127.81Z"/><path class="b" d="M83.58,127.28H0V110.51c0-3.73,0-8,2.13-11.71C4.79,94.27,9.05,92.67,13,91.87c4-1.06,20.5-6.12,24.22-7.72,2.4-1.06,2.66-3.19,2.66-7.72V74.3h4.53v1.86c0,4,0,9.85-5.32,12-3.73,1.6-20.5,6.65-24.76,8C10.65,97.2,8,98.26,6.12,101.19c-1.6,2.66-1.6,5.86-1.6,9.32v12.24H83.58C83.85,122.75,83.85,127.28,83.58,127.28Z"/><path class="c" d="M82.78,94c-3.19-1.06-13.58-5.32-14.64-5.59C62.82,86.28,63.09,81,63.35,77V74.3h4.53v2.93c-.27,4.26,0,6.12,2.13,7.19C71.6,85,81.45,89.21,84.38,90Z"/><path class="d" d="M28.48,56.47c-5.06-.27-7.72-5.86-8.52-9.05-1.33-5.06-.8-8.52,1.06-10.91,2.4-2.66,6.12-1.86,6.39-1.86l-.53,4.53a3.16,3.16,0,0,0-2.4.53c-.53.53-1.33,2.13,0,6.65h0c.27,1.33,1.86,5.59,4.26,5.59h1.6l.53,2.13-2.13.8Z"/><path class="e" d="M54,78c-12.51,0-23.69-9.32-27.68-22.89l4.26-1.33c3.46,12,13,19.7,23.42,19.7,9.85,0,19.17-7.45,23.16-18.9a3.11,3.11,0,0,1,2.4-2.4h.53c1.6-.27,3.19-4,3.46-5.86h0c1.33-4.79.27-6.39,0-6.65-.53-.53-1.86-.27-1.86-.27l-1.06-4.26c.27,0,3.73-.8,6.12,1.6,2.13,2.13,2.4,5.59,1.06,10.91-.27,1.06-2.13,8-6.65,9.05C76.4,69.51,65.75,78,54,78Z"/><path class="f" d="M22.63,40.5l-.53-2.66c0-.53-2.93-16,5.32-26.88C32.21,4.56,39.4,1.1,49.24.3c1.33-.27,17.83-2.13,28.22,8q10,9.58,8,28.75l-.27,1.86H80.39c-14.91,1.6-23.69-3.19-28.22-7.45a23.21,23.21,0,0,1-4.79-5.86c-6.12,8-18.1,12.24-18.63,12.51ZM48.18,14.41l1.6,6.12c.27.53,5.06,16.5,30.35,14.11h1.06c.8-10.38-1.33-18.1-6.65-23.16C65.48,2.7,50,4.83,50,4.83h0c-8.52.8-14.64,3.73-18.63,9.05-5.32,6.92-5.32,16.5-4.79,21l1.06-.27s14.64-5.59,18.37-14.11Z"/><path class="g" d="M53.77,95.6c-10.38,0-17-7.45-17-7.72L40.19,85l-1.6,1.6,1.6-1.6c.53.53,12.24,13.31,27.95.27l2.66,3.19C64.42,93.74,58.83,95.6,53.77,95.6Z"/></svg>