<svg xmlns="http://www.w3.org/2000/svg" viewBox="0 0 50.6 41.5"><defs><style>.a{fill:#8cc5d0;}</style></defs><title>Asset 1</title><path class="a" d="M1.9,16.2H0V3.7A3.94,3.94,0,0,1,1,1,5.12,5.12,0,0,1,3.1,0H41.3l.1.1A3.56,3.56,0,0,1,44.3,4V7.8H42.4V4c0-1.4-.6-2-1.9-2H3.9C2.6,2,2,2.6,2,4,1.9,8,1.9,12,1.9,16.2Z"/><path class="a" d="M23.1,34H17.9a16.59,16.59,0,0,0,.2-2.4h5V29.7H6.9A12.1,12.1,0,0,1,7,31.6h9.1c-.1,1-.2,2-.3,2.9s.2,1.4,1.3,1.4h6Z"/><rect class="a" x="1.1" y="25.1" width="21.7" height="1.7"/><path class="a" d="M22.8,29.8H3.8c-1.3,0-1.9-.6-1.9-2V15.4H0V27.9a3.94,3.94,0,0,0,1,2.7,4.27,4.27,0,0,0,2.1,1.1H22.8Z"/><circle class="a" cx="39.8" cy="35" r="0.8"/><path class="a" d="M38.7,35a1.1,1.1,0,1,1,1.1,1.1A1.18,1.18,0,0,1,38.7,35Zm.6,0a.5.5,0,1,0,.5-.5C39.5,34.5,39.3,34.6,39.3,35Z"/><path class="a" d="M47,7.2H32.6a3.54,3.54,0,0,0-3.5,3.5v8.1h1.5V10.7a2.11,2.11,0,0,1,2.1-2.1H47.1a2.11,2.11,0,0,1,2.1,2.1V34.8a2.11,2.11,0,0,1-2.1,2.1h-12v1.5h12a3.54,3.54,0,0,0,3.5-3.5V10.7A3.63,3.63,0,0,0,47,7.2Z"/><path class="a" d="M36.7,10.5h6.2a.43.43,0,0,0,.4-.4V9.9a.43.43,0,0,0-.4-.4H36.7a.43.43,0,0,0-.4.4V10C36.3,10.4,36.5,10.5,36.7,10.5Z"/><path class="a" d="M36.1,10.2V10a.65.65,0,0,1,.6-.6H43a.65.65,0,0,1,.6.6v.2a.65.65,0,0,1-.6.6H36.7C36.4,10.7,36.1,10.5,36.1,10.2Zm.6-.5a.22.22,0,0,0-.2.2v.3a.22.22,0,0,0,.2.2H43a.22.22,0,0,0,.2-.2V10a.22.22,0,0,0-.2-.2l-6.3-.1Z"/><rect class="a" x="34.6" y="32" width="14.5" height="1"/><path class="a" d="M32.3,18H25.8a3.54,3.54,0,0,0-3.5,3.5V38a3.54,3.54,0,0,0,3.5,3.5h6.5A3.54,3.54,0,0,0,35.8,38V21.5A3.48,3.48,0,0,0,32.3,18Zm2.1,20a2.11,2.11,0,0,1-2.1,2.1H25.8A2.11,2.11,0,0,1,23.7,38V35.5h0v-1h0v-13a2.11,2.11,0,0,1,2.1-2.1h6.5a2.11,2.11,0,0,1,2.1,2.1Z"/><circle class="a" cx="28.9" cy="38.8" r="0.5"/><path class="a" d="M28.9,39.5a.8.8,0,0,1,0-1.6.74.74,0,0,1,.8.8A.86.86,0,0,1,28.9,39.5Zm0-1a.2.2,0,1,0,.2.2A.22.22,0,0,0,28.9,38.5Z"/><path class="a" d="M29.9,20.4H28.1a.1.1,0,0,1-.1-.1h0a.1.1,0,0,1,.1-.1h1.8a.1.1,0,0,1,.1.1h0C30,20.4,30,20.4,29.9,20.4Z"/><path class="a" d="M29.9,20.5H28.1a.22.22,0,0,1-.2-.2v-.1a.22.22,0,0,1,.2-.2h1.8a.22.22,0,0,1,.2.2h0C30.1,20.4,30,20.5,29.9,20.5Z"/><rect class="a" x="23.2" y="36.5" width="11.4" height="1"/></svg>