<?xml version="1.0" encoding="utf-8"?>
<!-- Generator: Adobe Illustrator 21.0.0, SVG Export Plug-In . SVG Version: 6.00 Build 0)  -->
<svg version="1.1" id="Layer_1" xmlns="http://www.w3.org/2000/svg" xmlns:xlink="http://www.w3.org/1999/xlink" x="0px" y="0px"
	 viewBox="0 0 59.6 59.3" style="enable-background:new 0 0 59.6 59.3;" xml:space="preserve">
<style type="text/css">
	.st0{fill:url(#SVGID_1_);}
	.st1{fill:url(#SVGID_2_);}
	.st2{fill:url(#SVGID_3_);}
	.st3{fill:url(#SVGID_4_);}
	.st4{fill:url(#SVGID_5_);}
	.st5{fill:url(#SVGID_6_);}
</style>
<g>
	
		<linearGradient id="SVGID_1_" gradientUnits="userSpaceOnUse" x1="0.3" y1="657.2875" x2="59.2" y2="657.2875" gradientTransform="matrix(1 0 0 1 0 -627.8)">
		<stop  offset="0" style="stop-color:#26B9BC"/>
		<stop  offset="1" style="stop-color:#0883F0"/>
	</linearGradient>
	<path class="st0" d="M58.6,5.9c-5.2,0-10.3,0-15.5,0c-0.4,0-0.7-0.1-1-0.4c-1.5-1.6-3.1-3.1-4.6-4.7c-0.8-0.8-1.3-0.8-2.1,0
		c-0.6,0.6-1.2,1.2-1.8,1.8c-0.7-0.7-1.2-1.3-1.8-1.9c-0.7-0.7-1.3-0.7-2,0c-1.6,1.6-3.2,3.1-4.7,4.7c-0.3,0.3-0.6,0.4-1,0.4
		c-5.2,0-10.4,0-15.7,0c-3.9,0-7.1,2.5-7.9,6.2c0,0.2-0.1,0.4-0.2,0.6v40c0.2,0.7,0.3,1.4,0.6,2c1.3,2.7,3.5,4.1,6.5,4.2
		c3.3,0,6.6,0,9.9,0h41.9V5.9H58.6z M57.3,7.9v11.7c-0.6,0.1-1,0-1.5-0.4c-2.2-2.3-4.5-4.5-6.7-6.7l-3.4-3.4l0,0
		c-0.4-0.4-0.8-0.8-1.3-1.3C44.4,7.9,57.3,7.9,57.3,7.9z M36.5,2.6c5.6,5.6,11.2,11.2,16.9,16.9c-0.1,0-0.3,0-0.4,0
		c-1.4,0-2.8,0-4.2,0c-0.3,0-0.7-0.2-0.9-0.4c-3.5-3.4-6.9-6.9-10.4-10.3c-0.9-0.9-1.3-0.9-2.2,0c-3.4,3.4-6.9,6.9-10.3,10.3
		c-0.3,0.3-0.6,0.4-1,0.4c-1.5,0-3,0-4.4,0C25.2,13.9,30.9,8.4,36.5,2.6z M45.2,19.5H27.7c2.9-2.9,5.8-5.8,8.8-8.8
		C39.3,13.6,42.3,16.6,45.2,19.5z M30.8,2.5c0.4,0.4,0.9,0.9,1.3,1.3C32,3.9,31.9,4,31.8,4.2c-5,5-9.9,9.9-14.9,14.9
		c-0.3,0.3-0.6,0.4-1,0.4c-0.7,0-1.4,0-2.1,0C19.5,13.9,25.2,8.2,30.8,2.5z M5.3,8.5C6.2,8,7.2,7.7,8.2,7.7c4.7,0,9.3,0,14,0
		c0.1,0,0.2,0,0.5,0c-0.8,0.8-1.5,1.4-2.2,2.1c-0.3,0.3-0.5,0.5-0.7,0.8c-2.9,2.9-5.7,5.7-8.5,8.6c-0.3,0.3-0.6,0.4-1,0.4
		c-1.2-0.1-2.4,0-3.6-0.2c-2.4-0.5-4.1-2.6-4.4-5.1C2.1,12,3.3,9.6,5.3,8.5z M57.3,23.5L57.3,23.5v1.9l0,0v5.9h-0.6
		c-3.4,0-6.7,0-10.1,0c-3.7,0-6.6,2.7-6.9,6.4c-0.3,3.6,2.6,7.1,6.2,7.3c2.9,0.1,5.7,0.1,8.6,0.1c0.9,0,1.8,0,2.8,0v5.7l0,0V56l0,0
		v0.9h-0.6c-16.3,0-32.7,0-49,0c-2.6,0-4.6-1.4-5.2-3.8c-0.3-1-0.4-2-0.2-3.1v-3.1c0-0.1,0-0.3,0-0.4c0-8.5,0-17,0-25.6
		c0-0.6,0.2-1.1,0.3-1.7c0,0.1,0.1,0.1,0.2,0.2c1.6,1.5,3.6,2.2,5.8,2.2c16,0,31.9,0,47.9,0h0.8C57.3,21.6,57.3,23.5,57.3,23.5z
		 M57.3,33.4v9.7c-0.2,0-0.4,0-0.6,0c-3.3,0-6.6,0-9.8,0c-2.1,0-3.7-0.8-4.7-2.8c-1.5-2.9,0.5-6.7,3.7-7c1.3-0.1,2.5-0.1,3.8-0.1
		C52.2,33.4,54.7,33.4,57.3,33.4z"/>
	
		<linearGradient id="SVGID_2_" gradientUnits="userSpaceOnUse" x1="-1.937151e-07" y1="657.45" x2="59.6" y2="657.45" gradientTransform="matrix(1 0 0 1 0 -627.8)">
		<stop  offset="0" style="stop-color:#26B9BC"/>
		<stop  offset="1" style="stop-color:#0883F0"/>
	</linearGradient>
	<path class="st1" d="M11.4,59.3c-1.3,0-2.7,0-4,0c-3.1,0-5.4-1.5-6.7-4.4c-0.2-0.5-0.3-0.9-0.5-1.4c-0.1-0.2-0.1-0.4-0.2-0.6l0,0
		v-40l0,0c0-0.1,0-0.1,0.1-0.2c0-0.1,0.1-0.3,0.1-0.4c0.9-4.2,4.1-6.7,8.2-6.7c4.7,0,9.8,0,15.7,0c0.3,0,0.6-0.1,0.8-0.3
		c1.4-1.4,2.9-2.9,4.3-4.3l0.4-0.4c0.8-0.8,1.6-0.8,2.4,0c0.4,0.4,0.8,0.8,1.2,1.3c0.1,0.1,0.2,0.3,0.4,0.4c0.1-0.1,0.2-0.2,0.3-0.4
		c0.4-0.4,0.8-0.8,1.2-1.2C35.6,0.2,36,0,36.4,0l0,0c0.4,0,0.8,0.2,1.3,0.7l1,0.9c1.2,1.2,2.5,2.5,3.7,3.7c0.2,0.2,0.4,0.3,0.7,0.3
		l0,0c4.1,0,8.3,0,12.4,0h4.1v53.7H17.3c-1,0-2,0-3,0C13.4,59.3,12.4,59.3,11.4,59.3z M0.6,52.6c0.1,0.2,0.1,0.4,0.2,0.6
		c0.1,0.5,0.2,0.9,0.4,1.3c1.2,2.6,3.3,4,6.2,4c2.3,0,4.7,0,6.9,0c1,0,2,0,3,0H59V6.1h-3.5c-4.1,0-8.2,0-12.4,0l0,0
		c-0.5,0-0.9-0.1-1.2-0.5c-1.2-1.2-2.5-2.5-3.7-3.7l-1-0.9c-0.4-0.4-0.6-0.5-0.9-0.5l0,0c-0.2,0-0.5,0.2-0.9,0.5
		c-0.4,0.4-0.8,0.8-1.2,1.2c0,0.1-0.2,0.3-0.4,0.5l-0.2,0.2l-0.2-0.2c-0.2-0.2-0.4-0.4-0.6-0.6c-0.4-0.4-0.8-0.9-1.2-1.3
		c-0.6-0.6-1-0.6-1.6,0l-0.4,0.4c-1.4,1.4-2.9,2.9-4.3,4.3C25,5.8,24.6,6,24.1,6l0,0c-5.9,0-11,0-15.7,0c-3.8,0-6.8,2.4-7.6,6
		c0,0.2-0.1,0.3-0.1,0.5c0,0.1,0,0.1,0,0.2L0.6,52.6L0.6,52.6z M57.6,57.3h-0.9c-16.3,0-32.7,0-49,0c-2.8,0-4.8-1.5-5.5-4
		c-0.3-1.2-0.4-2.2-0.2-3.1v-3.1c0-0.1,0-0.3,0-0.4c0-8.6,0-17.2,0-25.6c0-0.4,0.1-0.8,0.2-1.2c0-0.2,0.1-0.4,0.1-0.6l0.1-0.4
		l0.4,0.2h0.1c0.1,0,0.1,0.1,0.2,0.1c1.5,1.4,3.4,2.1,5.6,2.1l0,0c11.6,0,23.2,0,34.8,0h14.2v2.5l0,0v1.4v0.3v6.2h-0.9
		c-1,0-2.1,0-3.1,0c-2.3,0-4.7,0-7,0c-3.6,0-6.3,2.6-6.6,6.2c-0.1,1.7,0.4,3.5,1.6,4.8s2.7,2.1,4.3,2.2c2,0.1,4,0.1,6,0.1
		c0.8,0,1.7,0,2.6,0c0.7,0,1.3,0,2,0h1.1v5.6l0,0L57.6,57.3z M2.8,19.7L2.8,19.7c-0.1,0.5-0.1,0.8-0.1,1.2c0,8.4,0,17,0,25.6
		c0,0.1,0,0.3,0,0.4l0,0v3.2c-0.2,1-0.1,1.8,0.2,3c0.6,2.3,2.4,3.6,4.9,3.6c16.3,0,32.7,0,49,0h0.3v-5.5l0,0v-5.7h-0.5
		c-0.7,0-1.3,0-2,0c-0.9,0-1.7,0-2.6,0c-2,0-4,0-6-0.1c-1.8-0.1-3.5-0.9-4.7-2.3c-1.3-1.5-1.9-3.4-1.8-5.2c0.3-3.8,3.4-6.7,7.2-6.7
		c2.3,0,4.7,0,7,0c1,0,2.1,0,3.1,0h0.3v-5.3v-0.3v-2.2l0,0V22H43.5c-11.6,0-23.2,0-34.8,0l0,0C6.3,21.9,4.4,21.1,2.8,19.7z
		 M46.9,43.4c-2.3,0-4-1-5-2.9c-0.8-1.5-0.7-3.2,0.1-4.8c0.8-1.5,2.3-2.5,3.9-2.6c1-0.1,2-0.1,3-0.1c0.3,0,0.5,0,0.8,0
		c1.8,0,3.6,0,5.4,0c0.7,0,1.5,0,2.2,0h0.3v10.4h-0.3c-0.1,0-0.1,0-0.2,0c-0.1,0-0.3,0-0.4,0c-1.3,0-2.5,0-3.8,0
		C50.9,43.4,48.9,43.4,46.9,43.4L46.9,43.4z M48.5,33.7c-0.9,0-1.7,0-2.6,0.1c-1.4,0.1-2.7,1-3.4,2.3c-0.7,1.4-0.8,2.9-0.1,4.2
		c0.9,1.8,2.4,2.6,4.5,2.6l0,0c2,0,4,0,6.1,0c1.3,0,2.5,0,3.8,0c0.1,0,0.2,0,0.3,0v-9.2c-0.6,0-1.3,0-1.9,0c-1.9,0-3.6,0-5.4,0
		c-0.3,0-0.5,0-0.8,0C48.7,33.7,48.6,33.7,48.5,33.7z M16,19.9C16,19.9,15.9,19.9,16,19.9c-0.6,0-1,0-1.5,0c-0.2,0-0.4,0-0.7,0h-0.7
		l0.5-0.5c2.9-2.9,5.7-5.7,8.5-8.6s5.7-5.7,8.5-8.5l0.2-0.2L31,2.3c0.4,0.4,0.9,0.9,1.3,1.3l0.2,0.2l-0.3,0.3
		c-0.1,0.1-0.2,0.2-0.3,0.3L29,7.3c-3.9,3.9-8,8-12,12C16.8,19.7,16.4,19.9,16,19.9z M15.1,19.4c0.3,0,0.6,0,0.9,0s0.5-0.1,0.8-0.3
		c4-4,8.1-8.1,12-12l2.9-2.9l0.1-0.1c-0.3-0.3-0.6-0.6-0.9-0.9c-2.8,2.8-5.5,5.5-8.3,8.3c-2.7,2.7-5.3,5.3-8,8
		C14.7,19.4,14.9,19.4,15.1,19.4z M24,19.9L24,19.9c-1.1,0-2.2,0-3.3,0c-0.4,0-0.8,0-1.1,0h-0.7L36.5,2.2l0.2,0.2
		c3.7,3.7,7.4,7.4,11.2,11.2l6.1,6.1l-0.6,0.1h-0.1c-0.1,0-0.2,0-0.3,0c-0.3,0-0.6,0-0.9,0c-1.1,0-2.2,0-3.3,0
		c-0.4,0-0.8-0.2-1.1-0.5c-2.7-2.7-5.4-5.4-8.1-8L37.3,9c-0.4-0.4-0.7-0.5-0.9-0.5l0,0c-0.2,0-0.5,0.2-0.9,0.6L33.6,11
		c-2.8,2.8-5.6,5.6-8.4,8.4C24.9,19.7,24.5,19.9,24,19.9z M21.9,19.4c0.7,0,1.4,0,2.1,0c0.3,0,0.5-0.1,0.8-0.3
		c2.8-2.8,5.7-5.7,8.4-8.4l1.9-1.9C35.5,8.4,35.9,8,36.4,8l0,0c0.5,0,0.9,0.4,1.3,0.8l2.3,2.3c2.6,2.6,5.4,5.4,8.1,8
		c0.2,0.2,0.5,0.3,0.7,0.3c1.1,0,2.2,0,3.2,0c0.2,0,0.5,0,0.7,0l-5.2-5.3c-3.7-3.7-7.4-7.4-11-11L20.3,19.4c0.1,0,0.3,0,0.4,0
		C21.1,19.4,21.5,19.4,21.9,19.4z M10.4,19.9L10.4,19.9c-0.5,0-0.9,0-1.3,0c-0.8,0-1.6,0-2.4-0.2c-2.4-0.5-4.3-2.7-4.6-5.3
		c-0.3-2.3,1-4.8,3.2-6l0,0c0.9-0.7,1.9-0.9,3-0.9c3.8,0,7.6,0,11.4,0h2.6c0.1,0,0.1,0,0.2,0s0.1,0,0.2,0h0.7L22.9,8
		c-0.2,0.2-0.5,0.4-0.7,0.6c-0.5,0.5-1.1,1-1.6,1.5c-0.1,0.1-0.2,0.3-0.4,0.4c-0.1,0.1-0.2,0.3-0.4,0.4c-0.8,0.9-1.7,1.9-2.7,2.8
		c-1.8,1.9-3.7,3.8-5.6,5.7C11.2,19.7,10.8,19.9,10.4,19.9z M5.5,8.9c-2,1.1-3.1,3.3-2.9,5.4c0.3,2.4,2,4.4,4.2,4.9
		c0.7,0.2,1.5,0.2,2.3,0.2c0.4,0,0.8,0,1.3,0c0.3,0,0.5-0.1,0.7-0.3c1.9-1.9,3.8-3.8,5.6-5.7c1-0.9,1.9-1.9,2.9-2.8
		c0.1-0.1,0.2-0.2,0.3-0.4c0.1-0.1,0.3-0.3,0.4-0.4c0.5-0.5,1-1,1.6-1.5C22,8.2,22,8.2,22.1,8.1h-2.3c-3.7,0-7.6,0-11.4,0
		C7.3,8,6.4,8.4,5.5,8.9L5.5,8.9z M56.9,19.9c-0.5,0-0.9-0.2-1.2-0.6c-1.7-1.7-3.4-3.4-5-5c-0.6-0.6-1.1-1.1-1.7-1.7l-3.7-3.7l0,0
		c-0.2-0.1-0.3-0.3-0.5-0.4c-0.2-0.2-0.3-0.3-0.5-0.5l-0.5-0.5h13.8v12.3l-0.2,0.1C57.2,19.9,57,19.9,56.9,19.9z M46.3,9.2l3,3
		c0.6,0.6,1.1,1.1,1.7,1.7c1.7,1.6,3.4,3.4,5,5.1c0.3,0.3,0.6,0.4,1,0.4V8.1H45.2l0,0c0.3,0.3,0.5,0.5,0.7,0.7L46.3,9.2L46.3,9.2z
		 M45.9,19.9H27l9.5-9.5l0.2,0.2c2.9,2.9,5.8,5.8,8.8,8.8L45.9,19.9z M28.4,19.2h16.1c-2.7-2.7-5.4-5.4-8-8L28.4,19.2z"/>
</g>
<g>
	
		<linearGradient id="SVGID_3_" gradientUnits="userSpaceOnUse" x1="43.6" y1="666.1" x2="51.4" y2="666.1" gradientTransform="matrix(1 0 0 1 0 -627.8)">
		<stop  offset="0" style="stop-color:#26B9BC"/>
		<stop  offset="1" style="stop-color:#0883F0"/>
	</linearGradient>
	<path class="st2" d="M47.5,34.4c2.2,0,3.9,1.8,3.9,3.9s-1.8,3.9-3.9,3.9c-2.1,0-3.9-1.8-3.9-3.9S45.3,34.4,47.5,34.4z M47.5,36.4
		c-1.1,0-2,0.8-2,1.9s0.9,1.9,1.9,2c1.1,0,2-0.9,2-2C49.5,37.3,48.6,36.4,47.5,36.4z"/>
	
		<linearGradient id="SVGID_4_" gradientUnits="userSpaceOnUse" x1="43.3" y1="666" x2="51.7" y2="666" gradientTransform="matrix(1 0 0 1 0 -627.8)">
		<stop  offset="0" style="stop-color:#26B9BC"/>
		<stop  offset="1" style="stop-color:#0883F0"/>
	</linearGradient>
	<path class="st3" d="M47.5,42.4c-1.1,0-2.2-0.4-3-1.2s-1.2-1.9-1.2-3s0.4-2.2,1.2-3s1.9-1.2,3-1.2l0,0l0,0c2.3,0,4.2,1.9,4.2,4.2
		c0,1.1-0.4,2.2-1.2,3S48.6,42.4,47.5,42.4L47.5,42.4z M47.5,34.7c-1,0-1.9,0.4-2.6,1.1c-0.7,0.7-1.1,1.6-1.1,2.6s0.4,1.9,1.1,2.6
		c0.7,0.7,1.6,1.1,2.5,1.1l0,0c1,0,1.9-0.4,2.6-1.1c0.7-0.7,1.1-1.6,1.1-2.6C51.1,36.3,49.5,34.7,47.5,34.7L47.5,34.7L47.5,34.7z
		 M47.5,40.5L47.5,40.5c-1.3,0-2.2-1-2.2-2.3c0-0.6,0.2-1.2,0.7-1.6c0.4-0.4,1-0.6,1.6-0.6l0,0c1.2,0,2.2,1,2.2,2.2
		c0,0.6-0.3,1.2-0.7,1.6C48.6,40.3,48.1,40.5,47.5,40.5z M47.5,36.7c-0.5,0-0.9,0.2-1.2,0.5s-0.5,0.7-0.5,1.2c0,0.9,0.7,1.7,1.6,1.7
		l0,0c0.4,0,0.8-0.2,1.2-0.5c0.3-0.3,0.5-0.8,0.5-1.2C49.2,37.4,48.4,36.7,47.5,36.7L47.5,36.7L47.5,36.7z"/>
</g>
<linearGradient id="SVGID_5_" gradientUnits="userSpaceOnUse" x1="14.2" y1="667.2" x2="31.5609" y2="667.2" gradientTransform="matrix(1 0 0 1 0 -627.8)">
	<stop  offset="0" style="stop-color:#F8823C"/>
	<stop  offset="1" style="stop-color:#F89629"/>
</linearGradient>
<polygon class="st4" points="21.9,46.7 14.2,37.8 15.7,36.5 21.8,43.4 29.9,32.1 31.6,33.2 "/>
<linearGradient id="SVGID_6_" gradientUnits="userSpaceOnUse" x1="9.8737" y1="668.1" x2="32.7263" y2="668.1" gradientTransform="matrix(1 0 0 1 0 -627.8)">
	<stop  offset="0" style="stop-color:#F8823C"/>
	<stop  offset="1" style="stop-color:#F89629"/>
</linearGradient>
<path class="st5" d="M21.4,51.8c-6.3,0-11.5-5.1-11.5-11.5c0-6.3,5.1-11.5,11.5-11.5c2.1,0,4,0.5,5.8,1.6l-1,1.7
	c-1.4-0.9-3.1-1.3-4.9-1.3c-5.2,0-9.4,4.2-9.4,9.4s4.2,9.4,9.4,9.4s9.4-4.2,9.4-9.4c0-0.6-0.1-1.3-0.2-1.8l2-0.4
	c0.2,0.7,0.2,1.4,0.2,2.2C32.9,46.6,27.7,51.8,21.4,51.8z"/>
</svg>
