<?xml version="1.0" encoding="utf-8"?>
<!-- Generator: Adobe Illustrator 21.0.0, SVG Export Plug-In . SVG Version: 6.00 Build 0)  -->
<svg version="1.1" id="Layer_1" xmlns="http://www.w3.org/2000/svg" xmlns:xlink="http://www.w3.org/1999/xlink" x="0px" y="0px"
	 viewBox="0 0 60.4 58.5" style="enable-background:new 0 0 60.4 58.5;" xml:space="preserve">
<style type="text/css">
	.st0{clip-path:url(#SVGID_2_);fill:url(#SVGID_3_);}
	.st1{clip-path:url(#SVGID_5_);fill:url(#SVGID_6_);}
	.st2{fill:url(#SVGID_7_);}
	.st3{fill:url(#SVGID_8_);}
	.st4{fill:url(#SVGID_9_);}
	.st5{fill:url(#SVGID_10_);}
</style>
<g>
	<g>
		<g>
			<g>
				<defs>
					<rect id="SVGID_1_" width="60.3" height="58.5"/>
				</defs>
				<clipPath id="SVGID_2_">
					<use xlink:href="#SVGID_1_"  style="overflow:visible;"/>
				</clipPath>
				
					<linearGradient id="SVGID_3_" gradientUnits="userSpaceOnUse" x1="0" y1="657.2" x2="60.4" y2="657.2" gradientTransform="matrix(1 0 0 1 0 -632.6)">
					<stop  offset="0" style="stop-color:#26B9BC"/>
					<stop  offset="1" style="stop-color:#0883F0"/>
				</linearGradient>
				<path class="st0" d="M56.2,0c1,0.3,2,0.7,2.8,1.5c1,1,1.4,2.3,1.4,3.7c0,11,0,21.9,0,32.9c0,3.1-2.1,5.1-5.2,5.1
					c-5.3,0-10.6,0-15.9,0h-0.8c0.1,1.4,0.3,2.7,0.4,4c0.2,1.4-0.3,2-1.7,2c-4.3,0-8.5,0-12.8,0c-1.4,0-1.9-0.5-1.7-1.9
					c0.1-1.3,0.3-2.6,0.4-4h-0.9c-5.7,0-11.4,0-17.1,0c-2.5,0-4.4-1.4-5-3.7C0,39.1,0,38.6,0,38C0,27.2,0,16.3,0,5.5
					C0,2.6,1.2,1,4,0.2l0.1-0.1L56.2,0L56.2,0z M57.8,34.3v-0.7c0-9.4,0-18.9,0-28.3c0-1.8-0.8-2.7-2.6-2.7c-16.6,0-33.2,0-49.8,0
					c-1.8,0-2.6,0.8-2.6,2.7c0,9.4,0,18.9,0,28.3c0,0.2,0,0.5,0,0.7H57.8z M57.7,36.9H2.6c0,0.9-0.2,1.8,0.4,2.6
					c0.5,0.8,1.3,1,2.3,1c16.6,0,33.2,0,49.8,0c0.2,0,0.4,0,0.5,0c1.1-0.1,2-0.8,2.1-2C57.8,38,57.7,37.5,57.7,36.9 M36.1,46.4
					c-0.1-1.1-0.2-2.2-0.3-3.3H25.6c-0.1,1.1-0.2,2.2-0.4,3.3H36.1z"/>
			</g>
		</g>
	</g>
	<g>
		<g>
			<g>
				<defs>
					<rect id="SVGID_4_" width="60.3" height="58.5"/>
				</defs>
				<clipPath id="SVGID_5_">
					<use xlink:href="#SVGID_4_"  style="overflow:visible;"/>
				</clipPath>
				
					<linearGradient id="SVGID_6_" gradientUnits="userSpaceOnUse" x1="4.7075" y1="687.2405" x2="55.5497" y2="687.2405" gradientTransform="matrix(1 0 0 1 0 -632.6)">
					<stop  offset="0" style="stop-color:#29C3C3"/>
					<stop  offset="1" style="stop-color:#0883F0"/>
				</linearGradient>
				<path class="st1" d="M30.2,58.4H6.7c-0.2,0-0.4,0-0.6,0c-1.2,0-1.7-1-1.2-2c0.8-1.6,1.6-3.1,2.4-4.7c0.3-0.6,0.8-0.9,1.5-0.8
					c3,0,5.9,0,8.9,0c11.2,0,22.4,0,33.5,0c0.9,0,1.5,0.3,1.9,1.1c0.7,1.4,1.5,2.8,2.2,4.3c0.6,1.2,0.1,2.1-1.3,2.1
					C46.1,58.4,38.2,58.4,30.2,58.4 M52.2,55.8c-0.3-0.6-0.6-1.1-0.8-1.6c-0.2-0.6-0.6-0.7-1.2-0.7c-13.4,0-26.7,0-40.1,0
					c-0.2,0-0.3,0-0.5,0c-0.1,0-0.3,0.1-0.4,0.2c-0.4,0.7-0.7,1.3-1.1,2.1H52.2z"/>
			</g>
		</g>
	</g>
</g>
<g>
	<g>
		
			<linearGradient id="SVGID_7_" gradientUnits="userSpaceOnUse" x1="19.4804" y1="653.3075" x2="30.2" y2="653.3075" gradientTransform="matrix(1 0 0 1 0 -632.6)">
			<stop  offset="0" style="stop-color:#FC952C"/>
			<stop  offset="1" style="stop-color:#FF6714"/>
		</linearGradient>
		<path class="st2" d="M30.2,29.3c-5.9,0-10.7-4.8-10.7-10.7c0-2.3,0.8-4.5,2.1-6.4l1.9,1.5c-1.1,1.5-1.6,3.2-1.6,5
			c0,4.6,3.8,8.3,8.3,8.3C30.2,26.9,30.2,29.3,30.2,29.3z"/>
		<g>
			
				<linearGradient id="SVGID_8_" gradientUnits="userSpaceOnUse" x1="19.5661" y1="645.5894" x2="26.5124" y2="645.5894" gradientTransform="matrix(1 0 0 1 0 -632.6)">
				<stop  offset="0" style="stop-color:#F89629"/>
				<stop  offset="1" style="stop-color:#FF6714"/>
			</linearGradient>
			<polygon class="st3" points="24.2,16.3 26.5,9.6 19.5,11 			"/>
		</g>
	</g>
	<g>
		
			<linearGradient id="SVGID_9_" gradientUnits="userSpaceOnUse" x1="30.2" y1="649.1483" x2="40.9196" y2="649.1483" gradientTransform="matrix(1 0 0 1 0 -632.6)">
			<stop  offset="0" style="stop-color:#F7490C"/>
			<stop  offset="1" style="stop-color:#F89629"/>
		</linearGradient>
		<path class="st4" d="M38.6,25.3l-1.8-1.5c1.2-1.5,1.8-3.3,1.8-5.2c0-4.6-3.8-8.3-8.3-8.3V7.8c5.9,0,10.7,4.8,10.7,10.7
			C41,21,40.1,23.4,38.6,25.3z"/>
		<g>
			
				<linearGradient id="SVGID_10_" gradientUnits="userSpaceOnUse" x1="33.373" y1="656.7377" x2="40.4051" y2="656.7377" gradientTransform="matrix(1 0 0 1 0 -632.6)">
				<stop  offset="0" style="stop-color:#F8823C"/>
				<stop  offset="1" style="stop-color:#F89629"/>
			</linearGradient>
			<polygon class="st5" points="36.2,20.9 33.3,27.4 40.4,26.5 			"/>
		</g>
	</g>
</g>
</svg>
