<?xml version="1.0" encoding="utf-8"?>
<!-- Generator: Adobe Illustrator 21.0.0, SVG Export Plug-In . SVG Version: 6.00 Build 0)  -->
<svg version="1.1" id="Layer_1" xmlns="http://www.w3.org/2000/svg" xmlns:xlink="http://www.w3.org/1999/xlink" x="0px" y="0px"
	 viewBox="0 0 63.5 61" style="enable-background:new 0 0 63.5 61;" xml:space="preserve">
<style type="text/css">
	.st0{fill:url(#SVGID_1_);}
	.st1{fill:none;}
	.st2{fill:url(#SVGID_2_);}
	.st3{fill:url(#SVGID_3_);}
	.st4{fill:url(#SVGID_4_);}
	.st5{clip-path:url(#SVGID_6_);fill:url(#SVGID_7_);}
	.st6{clip-path:url(#SVGID_9_);fill:url(#SVGID_10_);}
</style>
<g>
	<g>
		
			<linearGradient id="SVGID_1_" gradientUnits="userSpaceOnUse" x1="7.7" y1="645" x2="25.7854" y2="645" gradientTransform="matrix(1 0 0 1 0 -626)">
			<stop  offset="0" style="stop-color:#F8823C"/>
			<stop  offset="1" style="stop-color:#F89629"/>
		</linearGradient>
		<path class="st0" d="M22.5,12.2c-1.2-1.1-2.6-1.8-4.2-2c-0.5-0.1-1.1-0.2-1.7-0.2c-5,0-9,4-9,9c0,3,1.4,5.6,3.6,7.2
			c1.1,0.9,2.4,1.4,3.9,1.7c0.4,0.1,0.7,0.1,1.1,0.1c0.3,0,0.7,0,1,0s0.7-0.1,1-0.1c2.1-0.4,3.9-1.4,5.3-3c1.2-1.3,1.9-2.9,2.1-4.7
			C26,17,25,14.2,22.5,12.2z M8.4,19c0-0.2,0-0.4,0-0.6c0-0.1,0-0.1,0-0.2l0,0c0.1-0.2,0.1-0.5,0.1-0.5c0-0.3,0.1-0.6,0.2-0.8
			c0,0,0,0,0-0.1v-0.1c0.3-1.1,0.9-2.2,1.7-3.1l0,0l0,0c0.3-0.3,0.5-0.5,0.8-0.7l0,0c0,0,0,0,0.1,0c1.4-1.2,3.3-2,5.4-2
			c4.5,0,8.2,3.7,8.2,8.2c0,1.8-0.6,3.5-1.6,4.8c-0.1-0.6-0.2-1.2-0.5-1.8V22c-0.5-1-1.1-1.8-1.9-2.5c0,0,0,0-0.1-0.1l0,0
			c-0.1-0.1-0.3-0.2-0.4-0.3c-0.2-0.1-0.4-0.3-0.6-0.4c0,0,0,0,0-0.1c0.4-0.6,0.6-1.3,0.6-2c0-2-1.6-3.6-3.6-3.6
			c-1.5,0.1-2.8,1-3.4,2.2c-0.5,1.1-0.4,2.4,0.2,3.4c0,0,0.1,0.1,0.1,0.2c-0.6,0.3-1.1,0.7-1.6,1.1c-1.2,1.1-1.8,2.5-2,4.1
			C9,22.5,8.4,20.9,8.4,19z M16.5,13.8C16.6,13.8,16.6,13.8,16.5,13.8c0.1,0,0.2,0,0.3,0c1.5,0.2,2.7,1.4,2.7,2.9s-1.3,2.8-2.8,2.8
			s-2.8-1.3-2.8-2.8S15.1,14,16.5,13.8z M10.8,24.7c0.1-2.4,1.2-4.1,3.3-5.2c0.1-0.1,0.2,0,0.3,0c0.5,0.4,1.1,0.7,1.7,0.8
			c1.1,0.2,2.1-0.1,3-0.8c0,0,0.1-0.1,0.2,0c0.3,0.1,0.5,0.3,0.8,0.5l0,0c0.3,0.2,0.6,0.4,0.8,0.6c0.2,0.1,0.2,0.1,0.2,0.1
			c0.4,0.4,0.7,0.8,0.9,1.3c0.4,0.8,0.6,1.6,0.6,2.6c-1.5,1.6-3.6,2.6-6,2.6C14.3,27.2,12.3,26.3,10.8,24.7L10.8,24.7z"/>
		<path class="st1" d="M17.2,28.5h-1.1c-0.1,0-0.2,0-0.3,0c-0.3,0-0.5-0.1-0.8-0.1c-1.5-0.4-2.9-1-4.1-1.9C8.5,24.7,7.1,22,7.1,19
			c0-5.2,4.3-9.5,9.5-9.5c0.6,0,1.2,0.1,1.8,0.2c1.7,0.3,3.2,1,4.4,2.1l0,0c2.5,2.2,3.6,5.1,3.2,8.5c-0.2,1.8-1,3.5-2.2,4.9
			c-1.5,1.7-3.4,2.8-5.6,3.2c-0.2,0-0.5,0.1-0.7,0.1C17.4,28.5,17.3,28.5,17.2,28.5L17.2,28.5z M11.3,24.5c1.4,1.4,3.3,2.1,5.3,2.1
			c2.1,0,4-0.8,5.4-2.3c-0.1-0.8-0.3-1.5-0.6-2.2c-0.2-0.4-0.5-0.8-0.8-1.2c-0.1-0.2-0.1-0.2-0.2-0.2c-0.2-0.2-0.5-0.4-0.7-0.6h-0.2
			C19.4,20,19.3,20,19.2,20c-1,0.7-2.1,1-3.3,0.8c-0.7-0.1-1.3-0.4-1.8-0.8C12.3,21,11.4,22.5,11.3,24.5z M16.6,11.2
			c-1.8,0-3.6,0.7-5,1.9h-0.1c-0.2,0.2-0.5,0.5-0.7,0.7v0.1c-0.7,0.8-1.3,1.8-1.6,2.8v0.1c-0.1,0.3-0.1,0.6-0.2,0.9
			c0,0.2,0,0.3-0.1,0.5l0,0c0,0.1,0,0.1,0,0.2c0,0.2,0,0.4,0,0.6c0,1.3,0.3,2.5,0.9,3.6c0.3-1.1,1-2.2,1.9-3.1
			c0.4-0.4,0.8-0.7,1.3-1c-0.6-1.1-0.6-2.5,0-3.6c0.7-1.5,2.1-2.4,3.7-2.4c2.3,0,4.1,1.8,4.1,4.1c0,0.7-0.2,1.3-0.5,1.9
			c0.1,0,0.1,0.2,0.2,0.2c0.1,0.1,0.3,0.2,0.4,0.3c0,0,0,0,0.1,0l0,0c0.9,0.7,1.6,1.6,2.1,2.7c0,0,0,0.1,0.1,0.1
			c0.1,0.2,0.2,0.4,0.2,0.6c0.5-1.1,0.8-2.3,0.8-3.5C24.3,14.7,20.8,11.2,16.6,11.2z M16.5,14.4c-1.2,0.1-2.1,1.1-2.1,2.3
			c0,1.3,1,2.3,2.3,2.3c1.2,0,2.3-1,2.3-2.3c0-1.2-1-2.2-2.2-2.3l0,0C16.7,14.4,16.6,14.4,16.5,14.4z M16.6,13.5l-0.1,0.3L16.6,13.5
			L16.6,13.5z"/>
	</g>
	
		<linearGradient id="SVGID_2_" gradientUnits="userSpaceOnUse" x1="7.7" y1="661.8" x2="34.9" y2="661.8" gradientTransform="matrix(1 0 0 1 0 -626)">
		<stop  offset="0" style="stop-color:#F8823C"/>
		<stop  offset="1" style="stop-color:#F89629"/>
	</linearGradient>
	<rect x="7.6" y="34.6" class="st2" width="27.2" height="2.4"/>
	
		<linearGradient id="SVGID_3_" gradientUnits="userSpaceOnUse" x1="7.7" y1="668.9" x2="27.8" y2="668.9" gradientTransform="matrix(1 0 0 1 0 -626)">
		<stop  offset="0" style="stop-color:#F8823C"/>
		<stop  offset="1" style="stop-color:#F89629"/>
	</linearGradient>
	<rect x="7.6" y="41.7" class="st3" width="20.1" height="2.4"/>
	
		<linearGradient id="SVGID_4_" gradientUnits="userSpaceOnUse" x1="7.7" y1="676" x2="26.1" y2="676" gradientTransform="matrix(1 0 0 1 0 -626)">
		<stop  offset="0" style="stop-color:#F8823C"/>
		<stop  offset="1" style="stop-color:#F89629"/>
	</linearGradient>
	<rect x="7.6" y="48.8" class="st4" width="18.4" height="2.4"/>
</g>
<g>
	<g>
		<g>
			<g>
				<defs>
					<rect id="SVGID_5_" width="63.5" height="61"/>
				</defs>
				<clipPath id="SVGID_6_">
					<use xlink:href="#SVGID_5_"  style="overflow:visible;"/>
				</clipPath>
				
					<linearGradient id="SVGID_7_" gradientUnits="userSpaceOnUse" x1="0" y1="656.5446" x2="51.1" y2="656.5446" gradientTransform="matrix(1 0 0 1 0 -626)">
					<stop  offset="0" style="stop-color:#26B9BC"/>
					<stop  offset="1" style="stop-color:#0883F0"/>
				</linearGradient>
				<path class="st5" d="M51.1,30.8c-0.9,0.9-1.8,1.9-2.9,2.7v24.6H2.9V2.9h45.3v20c0.8-0.9,1.6-1.8,2.8-2.2h0.1
					c0-6.3,0-12.6,0-18.8c0-1.3-0.5-1.8-1.8-1.8c-15.8,0-31.7,0-47.5,0c-0.1,0-0.2,0-0.2,0C0.5,0,0,0.6,0,1.8l0,0l0,0
					c0,2.5,0,5.1,0,7.6C0,26,0,42.6,0,59.2C0,60.5,0.5,61,1.8,61c15.8,0,31.7,0,47.5,0c0.1,0,0.2,0,0.2,0c1.1-0.1,1.6-0.6,1.6-1.8
					l0,0l0,0c0-2.5,0-5.1,0-7.6C51.1,44.6,51.1,37.7,51.1,30.8"/>
			</g>
		</g>
	</g>
	<g>
		<g>
			<g>
				<defs>
					<rect id="SVGID_8_" width="63.5" height="61"/>
				</defs>
				<clipPath id="SVGID_9_">
					<use xlink:href="#SVGID_8_"  style="overflow:visible;"/>
				</clipPath>
				
					<linearGradient id="SVGID_10_" gradientUnits="userSpaceOnUse" x1="25.6343" y1="658.0875" x2="63.55" y2="658.0875" gradientTransform="matrix(1 0 0 1 0 -626)">
					<stop  offset="0" style="stop-color:#26B9BC"/>
					<stop  offset="1" style="stop-color:#0883F0"/>
				</linearGradient>
				<path class="st6" d="M29,47.6c1.5-0.4,2.9-0.7,4.2-1.1c0.4-0.1,0.8-0.3,1-0.6C41.1,39,48,32.2,54.8,25.3
					c0.2-0.2,0.3-0.3,0.4-0.4c-1.2-1.2-2.4-2.4-3.5-3.5l-0.1,0.1c-7,7-14.1,14.1-21.1,21.1c-0.2,0.2-0.3,0.4-0.4,0.6
					C29.8,44.6,29.4,46.1,29,47.6 M59.9,20.3c-1.2-1.3-2.4-2.4-3.4-3.5c-0.8,0.8-1.7,1.6-2.4,2.3c1.2,1.2,2.3,2.3,3.5,3.5
					C58.3,21.8,59.1,21,59.9,20.3 M56.8,13.1c0.4,0.3,0.8,0.5,1.2,0.9c1.6,1.6,3.2,3.2,4.8,4.8c1,1,1,1.7,0,2.7
					c-9,9-17.9,17.9-26.9,26.9c-0.4,0.4-0.9,0.7-1.4,0.8c-2.3,0.6-4.7,1.2-7,1.8c-0.7,0.2-1.4,0-1.7-0.6c-0.2-0.3-0.2-0.8-0.1-1.2
					c0.6-2.5,1.2-4.9,1.9-7.3c0.1-0.4,0.4-0.7,0.6-1c9-9,18-18,27.1-27.1c0.3-0.3,0.6-0.5,0.9-0.7C56.2,13.1,56.8,13.1,56.8,13.1z"
					/>
			</g>
		</g>
	</g>
</g>
</svg>
