<?xml version="1.0" encoding="utf-8"?>
<!-- Generator: Adobe Illustrator 21.0.0, SVG Export Plug-In . SVG Version: 6.00 Build 0)  -->
<svg version="1.1" id="Layer_1" xmlns="http://www.w3.org/2000/svg" xmlns:xlink="http://www.w3.org/1999/xlink" x="0px" y="0px"
	 viewBox="0 0 633.9 132.6" style="enable-background:new 0 0 633.9 132.6;" xml:space="preserve">
<style type="text/css">
	.st0{fill:url(#SVGID_1_);}
	.st1{fill:#FFFFFF;}
	.st2{clip-path:url(#SVGID_3_);fill:#FFFFFF;}
	.st3{clip-path:url(#SVGID_5_);fill:#FFFFFF;}
	.st4{clip-path:url(#SVGID_7_);fill:#FFFFFF;}
	.st5{clip-path:url(#SVGID_9_);fill:#FFFFFF;}
	.st6{clip-path:url(#SVGID_11_);fill:#FFFFFF;}
	.st7{clip-path:url(#SVGID_13_);fill:#FFFFFF;}
	.st8{clip-path:url(#SVGID_15_);fill:#FFFFFF;}
	.st9{clip-path:url(#SVGID_17_);fill:#FFFFFF;}
	.st10{clip-path:url(#SVGID_19_);fill:#FFFFFF;}
</style>
<g>
	
		<linearGradient id="SVGID_1_" gradientUnits="userSpaceOnUse" x1="0" y1="187.9" x2="132.6" y2="187.9" gradientTransform="matrix(1 0 0 1 0 -121.6)">
		<stop  offset="0" style="stop-color:#F7490C"/>
		<stop  offset="1" style="stop-color:#FF6714"/>
	</linearGradient>
	<circle class="st0" cx="66.3" cy="66.3" r="66.3"/>
	<g>
		<polygon class="st1" points="163.6,36 163.6,100.6 179.1,100.6 179.1,73.9 210.5,73.9 210.5,62.9 179.1,62.9 179.1,47.1 
			213.8,47.1 213.8,36 		"/>
		<g>
			<g>
				<g>
					<defs>
						<rect id="SVGID_2_" x="163.6" y="30.9" width="470.3" height="70.6"/>
					</defs>
					<clipPath id="SVGID_3_">
						<use xlink:href="#SVGID_2_"  style="overflow:visible;"/>
					</clipPath>
					<path class="st2" d="M255.2,63.5h-5c-4,0-7,0.6-9,1.8c-2,1.2-3,3.3-3,6.3v29h-14.5V52.4h13.8v8.5c0.1-2.4,1.4-4.6,4.1-6.5
						c2.4-1.9,5.4-2.9,8.4-2.9h5.2V63.5z"/>
				</g>
			</g>
			<g>
				<g>
					<defs>
						<rect id="SVGID_4_" x="163.6" y="30.9" width="470.3" height="70.6"/>
					</defs>
					<clipPath id="SVGID_5_">
						<use xlink:href="#SVGID_4_"  style="overflow:visible;"/>
					</clipPath>
					<path class="st3" d="M309.6,100.6h-14.3v-5.9c-1.1,4.6-6.3,6.9-15.4,6.9c-6.4,0-10.7-1.1-13.1-3.4s-3.6-5.8-3.6-10.4V52.4h14.5
						v33.3c0,2.7,0.4,4.4,1.3,5.4s3,1.4,6.4,1.4c4.2,0,6.8-0.4,8-1.3c1.1-0.9,1.7-2.7,1.7-5.4V52.4h14.5V100.6z"/>
				</g>
			</g>
			<g>
				<g>
					<defs>
						<rect id="SVGID_6_" x="163.6" y="30.9" width="470.3" height="70.6"/>
					</defs>
					<clipPath id="SVGID_7_">
						<use xlink:href="#SVGID_6_"  style="overflow:visible;"/>
					</clipPath>
					<path class="st4" d="M362.1,99.9c-5.4,1.1-10.8,1.6-16.3,1.7c-2.5,0-4.4,0-5.9-0.1s-3.3-0.2-5.5-0.5c-1.9-0.2-3.7-0.7-5.4-1.5
						c-1.5-0.8-2.8-1.7-4.1-2.8c-1.4-1.3-2.5-2.9-3-4.7c-0.7-2.2-1-4.6-1-6.9v-16c0-2.1,0.3-4.3,0.8-6.3c0.5-1.6,1.2-3.2,2.1-4.6
						c0.9-1.3,2.1-2.4,3.5-3.1c1.3-0.8,2.7-1.4,4.1-1.9c1.6-0.5,3.3-0.9,4.9-1c1.7-0.2,3.4-0.4,5.1-0.4c1.4,0,3.1,0,5.3,0
						c3.6,0,8.5,0.6,14.6,1.8v9.5c-6.9-1.6-12.1-2.4-15.7-2.4c-6.7,0-10,2.3-10,6.8v17.7c0,5.1,3.7,7.7,11,7.7
						c3.4,0,8.6-0.7,15.4-2.2L362.1,99.9z"/>
				</g>
			</g>
			<g>
				<g>
					<defs>
						<rect id="SVGID_8_" x="163.6" y="30.9" width="470.3" height="70.6"/>
					</defs>
					<clipPath id="SVGID_9_">
						<use xlink:href="#SVGID_8_"  style="overflow:visible;"/>
					</clipPath>
					<path class="st5" d="M402.3,101.1c-2.7,0.3-5.4,0.5-8.1,0.5c-2.3,0-4.2-0.1-5.9-0.2c-1.8-0.2-3.6-0.6-5.3-1.2
						c-1.6-0.5-3.2-1.4-4.5-2.5c-1.3-1.2-2.3-2.7-2.9-4.4c-0.8-2.1-1.2-4.4-1.1-6.7V61.4h-9.6v-8.9h9.7v-14h14.5v13.9h13.2v8.9
						h-13.2V84c0,3.3,0.5,5.6,1.5,6.7c1,1.2,3.2,1.7,6.6,1.7c1.7-0.1,3.5-0.2,5.2-0.5v9.2C402.4,101.1,402.3,101.1,402.3,101.1z"/>
				</g>
			</g>
			<g>
				<g>
					<defs>
						<rect id="SVGID_10_" x="163.6" y="30.9" width="470.3" height="70.6"/>
					</defs>
					<clipPath id="SVGID_11_">
						<use xlink:href="#SVGID_10_"  style="overflow:visible;"/>
					</clipPath>
					<path class="st6" d="M460.7,99.4c-6.9,1.4-13.9,2.1-20.9,2.2c-2.7,0-5.2-0.1-7.5-0.3c-2.7-0.3-5.3-0.8-7.9-1.5
						c-2.6-0.6-5.1-1.7-7.4-3.1c-4.6-3-7.3-8.2-7.2-13.8V54.5c0-13,10-19.5,29.9-19.5c4.9,0,11.7,0.7,20.5,2.2v11.6
						c-7.9-1.9-14.7-2.8-20.3-2.8c-2.3,0-4.1,0.1-5.5,0.2c-1.5,0.2-3,0.5-4.5,1c-1.4,0.4-2.6,1.3-3.5,2.5c-0.8,1.4-1.2,2.9-1.1,4.5
						v27.4c0,5.8,5.3,8.8,16,8.8c4.7,0,11.1-1,19.3-2.9L460.7,99.4z"/>
				</g>
			</g>
			<g>
				<g>
					<defs>
						<rect id="SVGID_12_" x="163.6" y="30.9" width="470.3" height="70.6"/>
					</defs>
					<clipPath id="SVGID_13_">
						<use xlink:href="#SVGID_12_"  style="overflow:visible;"/>
					</clipPath>
					<path class="st7" d="M517.6,69.8V84c0.1,2.7-0.4,5.5-1.5,8c-0.8,2-2.1,3.7-3.7,5.2c-1.7,1.3-3.6,2.3-5.7,2.8
						c-2.1,0.6-4.3,1-6.5,1.2c-2,0.2-4.3,0.2-7.1,0.2c-2.8,0-5.2-0.1-7.1-0.2c-2.2-0.2-4.4-0.6-6.5-1.2c-2.1-0.5-4-1.5-5.7-2.9
						c-1.6-1.4-2.9-3.2-3.7-5.2c-1.1-2.5-1.6-5.3-1.5-8V69.8c-0.1-2.9,0.4-5.8,1.5-8.5c0.8-2.1,2.1-3.9,3.8-5.4
						c1.7-1.4,3.7-2.4,5.8-2.9c2.1-0.6,4.2-1.1,6.4-1.3c1.9-0.2,4.2-0.2,6.9-0.2c2.7,0,5,0.1,6.9,0.2c2.2,0.2,4.3,0.7,6.4,1.3
						s4.1,1.6,5.8,2.9c1.7,1.5,3,3.3,3.8,5.4C517.2,64,517.7,66.9,517.6,69.8 M503.1,85.7V67.5c0-2.6-0.7-4.4-2-5.5s-4-1.6-8-1.6
						s-6.6,0.5-8,1.6c-1.3,1.1-2,2.9-2,5.5v18.2c0,2.5,0.6,4.3,1.9,5.3s4,1.5,8,1.5s6.7-0.5,8-1.5C502.4,90,503.1,88.3,503.1,85.7"
						/>
				</g>
			</g>
			<g>
				<g>
					<defs>
						<rect id="SVGID_14_" x="163.6" y="30.9" width="470.3" height="70.6"/>
					</defs>
					<clipPath id="SVGID_15_">
						<use xlink:href="#SVGID_14_"  style="overflow:visible;"/>
					</clipPath>
					<path class="st8" d="M576.7,100.6h-14v-5.5c-0.8,1.4-1.9,2.8-3.1,3.9c-1.2,1-2.7,1.6-4.2,1.9c-2.6,0.5-5.3,0.7-8,0.6
						c-8.2,0-13.6-1-16.1-3.1s-3.8-6.6-3.8-13.7V66c0-5.4,1.5-9.2,4.6-11.4c3.1-2.1,7.9-3.2,14.6-3.2c4.8,0,8.1,0.4,10,1.3
						c1.9,0.9,3.7,2.6,5.4,5V30.9h14.5L576.7,100.6z M562.1,86.1V66.7c0-2.4-0.6-4-1.9-5c-1.3-0.9-4.1-1.4-8.3-1.4
						c-4.4,0-7.2,0.4-8.3,1.3c-1.1,0.9-1.6,2.7-1.6,5.6v18.4c0,2.7,0.5,4.5,1.6,5.4c1.1,1,3.5,1.4,7.5,1.4c4.7,0,7.7-0.4,9-1.2
						S562.2,88.7,562.1,86.1"/>
				</g>
			</g>
			<g>
				<g>
					<defs>
						<rect id="SVGID_16_" x="163.6" y="30.9" width="470.3" height="70.6"/>
					</defs>
					<clipPath id="SVGID_17_">
						<use xlink:href="#SVGID_16_"  style="overflow:visible;"/>
					</clipPath>
					<path class="st9" d="M633.8,80.4h-31.2v4.4c0,2.7,1,4.7,2.9,5.9c1.9,1.2,5.5,1.8,10.8,1.8c5.4-0.1,10.8-0.8,16.1-2.1v9.3
						c-6.2,1.3-12.5,1.9-18.9,1.9c-17,0-25.6-5.2-25.6-15.6V68.7c0-6.2,2-10.6,6-13.2c4-2.7,9.9-4,17.8-4c7.4,0,13,1.3,16.6,3.8
						s5.5,7,5.5,13.4L633.8,80.4z M620,72.1v-7c0.1-1.4-0.6-2.8-1.8-3.5c-1.2-0.8-3.4-1.2-6.6-1.2c-3.5,0-5.9,0.4-7.1,1.2
						c-1.2,0.8-1.9,2.1-1.8,3.5v7H620z"/>
				</g>
			</g>
		</g>
	</g>
	<g>
		<polygon class="st1" points="24.1,43.9 24.1,93.3 36,93.3 36,72.9 60.1,72.9 60.1,64.4 36,64.4 36,52.3 62.6,52.3 62.6,43.9 		"/>
		<g>
			<g>
				<g>
					<defs>
						<rect id="SVGID_18_" x="24.1" y="43.1" width="84.4" height="51"/>
					</defs>
					<clipPath id="SVGID_19_">
						<use xlink:href="#SVGID_18_"  style="overflow:visible;"/>
					</clipPath>
					<path class="st10" d="M108.5,92.4c-5.3,1.1-10.6,1.6-16,1.7c-2,0-4-0.1-5.8-0.3c-2-0.2-4-0.6-6-1.1s-3.9-1.3-5.6-2.4
						c-3.5-2.3-5.6-6.3-5.5-10.6V58c0-10,7.7-14.9,22.9-14.9c3.8,0,9,0.6,15.7,1.7v8.9c-6-1.4-11.2-2.1-15.5-2.1
						c-1.7,0-3.1,0.1-4.2,0.2c-1.2,0.1-2.3,0.4-3.4,0.8c-1.1,0.3-2,1-2.7,1.9c-0.6,1-0.9,2.3-0.9,3.5v21c0,4.5,4.1,6.7,12.3,6.7
						c3.6,0,8.5-0.7,14.8-2.2L108.5,92.4z"/>
				</g>
			</g>
		</g>
	</g>
</g>
</svg>
