<svg xmlns="http://www.w3.org/2000/svg" viewBox="0 0 54.6 40.4"><defs><style>.a{fill:#8cc5d0;}</style></defs><title>Asset 1</title><path class="a" d="M43.6,34c-.2-.1-.5-.3-.9-.5A4.05,4.05,0,0,0,43.6,34Z"/><path class="a" d="M49.8,26.4V4a4,4,0,0,0-4-4H4A4,4,0,0,0,0,4V31.1a4,4,0,0,0,4,4H39.8a3.55,3.55,0,0,1,.4-.9,1.61,1.61,0,0,1,.4-.7H4a2.43,2.43,0,0,1-2.4-2.4V4A2.43,2.43,0,0,1,4,1.6H45.7A2.43,2.43,0,0,1,48.1,4V26.9a.85.85,0,0,1,.8-.7A1.44,1.44,0,0,1,49.8,26.4Z"/><path class="a" d="M48.8,7.5H1.6a.79.79,0,0,1-.8-.8.86.86,0,0,1,.8-.8H48.8a.79.79,0,0,1,.8.8A.86.86,0,0,1,48.8,7.5Z"/><circle class="a" cx="34.9" cy="3.7" r="1.1"/><path class="a" d="M34.9,5.1a1.43,1.43,0,0,1-1.4-1.4,1.4,1.4,0,0,1,2.8,0A1.37,1.37,0,0,1,34.9,5.1Zm0-2.3a.9.9,0,1,0,.9.9A.9.9,0,0,0,34.9,2.8Z"/><circle class="a" cx="39.2" cy="3.7" r="1.1"/><path class="a" d="M39.2,5.1a1.43,1.43,0,0,1-1.4-1.4,1.37,1.37,0,0,1,1.4-1.4,1.43,1.43,0,0,1,1.4,1.4A1.37,1.37,0,0,1,39.2,5.1Zm0-2.3a.9.9,0,1,0,.9.9A.84.84,0,0,0,39.2,2.8Z"/><circle class="a" cx="43.4" cy="3.7" r="1.1"/><path class="a" d="M43.4,5.1A1.43,1.43,0,0,1,42,3.7a1.37,1.37,0,0,1,1.4-1.4,1.43,1.43,0,0,1,1.4,1.4A1.43,1.43,0,0,1,43.4,5.1Zm0-2.3a.9.9,0,1,0,.9.9A.9.9,0,0,0,43.4,2.8Z"/><polygon class="a" points="26.2 13.1 27.3 13.5 22.7 27 21.5 26.6 26.2 13.1"/><polygon class="a" points="18.5 14.1 19.4 14.9 13.3 21.1 12.4 20.3 18.5 14.1"/><polygon class="a" points="13.3 19.5 19.4 25.1 18.6 26 12.5 20.3 13.3 19.5"/><polygon class="a" points="35.6 19 36.5 19.9 30.4 26.1 29.5 25.2 35.6 19"/><polygon class="a" points="30.4 14.2 36.5 19.9 35.6 20.8 29.6 15.1 30.4 14.2"/><path class="a" d="M53.2,29.5h-1a3.55,3.55,0,0,0-.4-.9l.7-.7a1.45,1.45,0,0,0,0-2l-1-1a1.45,1.45,0,0,0-2,0l-.7.7c-.3-.1-.6-.3-.9-.4v-1a1.37,1.37,0,0,0-1.4-1.4H45.1a1.37,1.37,0,0,0-1.4,1.4v1a3.55,3.55,0,0,0-.9.4l-.7-.7a1.45,1.45,0,0,0-2,0l-1,1a1.45,1.45,0,0,0,0,2l.7.7c-.1.3-.3.6-.4.9h-1A1.37,1.37,0,0,0,37,30.9v1.4a1.37,1.37,0,0,0,1.4,1.4h1a3.55,3.55,0,0,0,.4.9l-.7.7a1.45,1.45,0,0,0,0,2l1,1a1.45,1.45,0,0,0,2,0l.7-.7c.3.1.6.3.9.4v1a1.37,1.37,0,0,0,1.4,1.4h1.4A1.37,1.37,0,0,0,47.9,39V38a3.55,3.55,0,0,0,.9-.4l.7.7a1.45,1.45,0,0,0,2,0l1-1a1.45,1.45,0,0,0,0-2l-.7-.7c.1-.3.3-.6.4-.9h1a1.37,1.37,0,0,0,1.4-1.4V30.9A1.43,1.43,0,0,0,53.2,29.5Zm-8.6-3.6ZM40.3,33Zm2.6,3.6Zm1.7.7Zm4.3-.6c.1,0,.1-.1,0,0Zm2.7-3.6Zm.1-.8a.75.75,0,0,0-.7.5,4.71,4.71,0,0,1-.6,1.5.76.76,0,0,0,.1.9l1.1,1.1-1,1-1.1-1.2a.76.76,0,0,0-.5-.2.6.6,0,0,0-.4.1,4.71,4.71,0,0,1-1.5.6.75.75,0,0,0-.5.7v1.6H45.2V37.3a.75.75,0,0,0-.5-.7,4.71,4.71,0,0,1-1.5-.6c-.1-.1-.2-.1-.4-.1a.76.76,0,0,0-.5.2l-1.1,1.1-1-1,1.1-1.1a.74.74,0,0,0,.1-.9,4.71,4.71,0,0,1-.6-1.5.75.75,0,0,0-.7-.5H38.5V30.8h1.6a.75.75,0,0,0,.7-.5,4.71,4.71,0,0,1,.6-1.5.76.76,0,0,0-.1-.9l-1.1-1.1,1-1,1.1,1.1a.76.76,0,0,0,.5.2.6.6,0,0,0,.4-.1,4.71,4.71,0,0,1,1.5-.6.75.75,0,0,0,.5-.7V24.1h1.4v1.6a.75.75,0,0,0,.5.7,4.71,4.71,0,0,1,1.5.6c.1.1.2.1.4.1a.76.76,0,0,0,.5-.2l1.1-1.1,1,1-1.1,1.3a.74.74,0,0,0-.1.9,4.71,4.71,0,0,1,.6,1.5.75.75,0,0,0,.7.5h1.6v1.4l-1.6-.1ZM40.9,34.6Zm0-6Z"/><path class="a" d="M46,27.8a3.8,3.8,0,1,0,3.8,3.8A3.8,3.8,0,0,0,46,27.8ZM46,34a2.4,2.4,0,1,1,2.4-2.4A2.43,2.43,0,0,1,46,34Z"/></svg>